<?xml version="1.0" standalone="no"?>
<!DOCTYPE svg PUBLIC "-//W3C//DTD SVG 20010904//EN"
 "http://www.w3.org/TR/2001/REC-SVG-20010904/DTD/svg10.dtd">
<svg version="1.0" xmlns="http://www.w3.org/2000/svg"
 width="1880.000000pt" height="1880.000000pt" viewBox="0 0 1880.000000 1880.000000"
 preserveAspectRatio="xMidYMid meet">
<metadata>
Created by potrace 1.11, written by Peter Selinger 2001-2013
</metadata>
<g transform="translate(0.000000,1880.000000) scale(0.100000,-0.100000)"
fill="#000000" stroke="none">
<path d="M9327 18794 c-1 -1 -101 -5 -222 -8 -121 -3 -247 -8 -280 -10 -99 -7
-228 -17 -260 -20 -16 -2 -66 -7 -110 -10 -44 -4 -87 -9 -95 -11 -8 -2 -46 -6
-83 -10 -37 -3 -76 -8 -85 -9 -9 -2 -44 -7 -77 -11 -32 -4 -68 -9 -79 -11 -11
-2 -38 -6 -61 -9 -22 -3 -80 -13 -130 -21 -49 -8 -101 -17 -115 -19 -34 -6
-81 -14 -105 -19 -111 -22 -237 -49 -265 -56 -19 -5 -50 -12 -69 -15 -19 -3
-38 -8 -41 -10 -4 -3 -23 -7 -43 -10 -19 -3 -102 -24 -183 -46 -82 -22 -157
-42 -167 -44 -26 -6 -183 -54 -252 -77 -33 -10 -67 -21 -75 -23 -101 -23 -651
-229 -855 -320 -16 -8 -60 -27 -96 -43 -337 -150 -714 -347 -1034 -540 -128
-77 -506 -327 -615 -405 -144 -104 -416 -312 -446 -341 -6 -6 -23 -20 -38 -31
-15 -11 -40 -31 -55 -45 -15 -14 -45 -40 -68 -58 -23 -19 -53 -44 -66 -55 -13
-12 -62 -56 -108 -97 -246 -219 -581 -554 -779 -781 -98 -112 -250 -292 -303
-359 -207 -262 -378 -497 -540 -745 -87 -134 -269 -434 -327 -540 -18 -33 -46
-85 -63 -115 -73 -134 -182 -352 -247 -492 -39 -84 -75 -161 -80 -170 -6 -10
-10 -25 -10 -33 0 -8 -4 -15 -10 -15 -5 0 -10 -6 -10 -14 0 -7 -12 -40 -26
-72 -36 -80 -144 -350 -160 -399 -7 -22 -25 -71 -39 -110 -25 -64 -111 -320
-120 -355 -2 -8 -13 -44 -25 -80 -75 -236 -207 -781 -245 -1010 -3 -19 -8 -42
-10 -50 -2 -8 -6 -33 -10 -55 -3 -22 -10 -65 -15 -95 -9 -55 -12 -74 -25 -160
-4 -25 -8 -56 -10 -70 -2 -14 -7 -51 -10 -83 -4 -32 -8 -66 -10 -75 -1 -9 -6
-46 -9 -82 -4 -36 -9 -81 -11 -100 -3 -19 -7 -69 -11 -110 -3 -41 -7 -92 -9
-113 -3 -40 -15 -240 -21 -362 -4 -89 -4 -680 1 -760 2 -33 6 -114 10 -180 3
-66 8 -133 9 -150 2 -16 7 -68 11 -115 4 -47 9 -103 11 -125 3 -22 7 -60 9
-85 3 -25 7 -61 10 -80 2 -19 7 -55 10 -80 3 -25 10 -74 15 -110 5 -36 12 -83
15 -105 3 -22 15 -94 26 -160 12 -66 23 -133 26 -149 51 -305 192 -852 313
-1216 49 -147 167 -471 195 -535 7 -16 33 -79 58 -140 264 -637 658 -1338
1063 -1890 41 -55 82 -111 91 -124 68 -92 179 -231 305 -381 236 -281 305
-356 563 -615 288 -288 475 -455 830 -743 50 -40 340 -255 430 -319 430 -302
939 -596 1430 -825 313 -146 754 -319 1040 -408 39 -12 95 -30 125 -40 113
-38 437 -129 510 -144 14 -3 61 -14 105 -25 75 -18 334 -74 400 -86 259 -47
303 -54 423 -70 20 -3 48 -7 62 -10 14 -2 48 -7 75 -10 28 -3 64 -8 80 -10 17
-3 55 -7 85 -10 30 -3 69 -7 85 -9 17 -2 71 -7 120 -11 50 -4 106 -8 125 -10
19 -2 87 -6 150 -10 63 -3 147 -8 185 -10 96 -6 634 -6 770 -1 105 5 233 13
340 21 28 2 84 7 125 10 41 4 89 8 105 10 17 2 57 6 90 10 33 4 110 13 170 21
61 8 126 17 145 20 63 8 104 14 195 30 50 9 102 17 117 19 15 2 35 6 45 9 10
3 34 7 53 10 19 3 46 8 60 11 23 5 77 17 140 30 14 2 36 7 50 10 14 3 35 7 48
10 13 2 32 7 42 10 10 3 29 8 42 11 34 7 60 13 83 18 381 85 1099 326 1480
496 22 10 71 32 108 49 38 17 70 31 72 31 8 0 433 211 532 264 331 177 706
411 1043 649 59 42 324 240 330 247 3 3 55 46 115 95 291 236 445 375 720 650
187 187 274 279 385 405 36 40 74 84 85 96 30 34 52 60 138 164 149 181 258
322 356 460 45 63 88 122 94 130 23 28 214 315 253 380 21 36 41 67 44 70 6 5
170 283 215 365 86 155 147 272 241 463 57 116 104 214 104 217 0 2 15 37 34
77 18 40 50 114 70 163 21 50 44 104 51 120 57 133 228 606 256 710 4 17 17
59 28 95 52 175 98 339 116 420 1 3 7 23 13 45 6 22 14 55 17 74 3 19 8 37 10
41 2 4 7 21 10 39 3 18 14 70 25 114 10 45 23 109 29 142 6 33 13 71 16 85 12
56 26 135 40 224 4 21 8 46 10 55 6 32 16 97 19 126 2 17 9 68 15 115 16 114
19 145 26 210 3 30 8 71 10 90 4 33 9 88 20 219 4 51 12 186 20 341 5 97 5
694 0 775 -2 39 -7 117 -10 175 -3 58 -7 128 -10 155 -2 28 -7 88 -10 135 -4
47 -8 96 -10 110 -2 14 -7 52 -10 85 -7 67 -14 128 -20 165 -2 14 -6 45 -9 70
-3 25 -8 63 -11 85 -7 51 -63 382 -70 415 -4 14 -8 36 -11 50 -17 85 -56 267
-59 280 -2 8 -13 56 -24 105 -25 105 -23 97 -100 370 -81 286 -232 729 -306
900 -7 17 -34 82 -60 145 -27 63 -58 138 -70 165 -13 28 -35 77 -50 110 -78
171 -233 478 -329 650 -13 22 -38 67 -56 100 -171 308 -523 833 -744 1111 -23
28 -54 68 -71 89 -71 92 -150 185 -321 380 -119 137 -173 193 -379 400 -164
164 -244 240 -460 434 -32 29 -209 177 -310 260 -223 182 -591 445 -851 608
-458 288 -876 507 -1371 719 -57 24 -105 44 -108 44 -4 0 -25 9 -48 19 -108
49 -488 183 -747 265 -146 45 -483 136 -640 171 -37 9 -217 47 -240 51 -14 3
-32 7 -40 9 -8 3 -32 7 -54 11 -21 3 -48 8 -60 10 -40 8 -251 43 -291 49 -22
3 -69 10 -105 15 -132 19 -199 27 -375 45 -33 3 -78 8 -100 10 -22 2 -78 7
-125 10 -47 3 -110 8 -140 10 -94 7 -648 23 -653 19z"/>
</g>
</svg>
